<svg width="325" height="114" viewBox="0 0 325 114" fill="none" xmlns="http://www.w3.org/2000/svg">
<path d="M19.604 37.736V89H8.276V37.16C8.276 28.712 13.076 23.048 23.156 23.048C32.18 23.048 36.212 27.656 38.9 35.048L57.812 76.424C58.58 77.96 59.828 79.112 61.94 79.112C64.34 79.112 65.78 77.672 65.78 75.464V24.2H77.204V75.944C77.204 84.488 72.308 90.152 62.324 90.152C53.3 90.152 49.172 85.544 46.484 78.152L27.572 36.776C26.708 34.856 25.556 33.992 23.54 33.992C20.948 33.992 19.604 35.432 19.604 37.736ZM109.931 24.2H142.763V35.528H109.547C103.691 35.528 101.099 38.696 101.099 43.208C101.099 47.144 103.115 50.888 110.699 50.888H125.867C143.531 50.888 147.659 60.68 147.659 69.992C147.659 80.936 141.803 89 127.019 89H90.923V77.672H127.403C133.547 77.672 136.331 74.312 136.331 69.608C136.331 65.384 134.123 61.544 126.155 61.544H111.083C93.803 61.544 89.771 51.848 89.771 42.824C89.771 32.072 95.531 24.2 109.931 24.2ZM185.687 36.776L166.295 89H154.199L174.263 35.048C176.759 27.656 180.887 23.048 189.527 23.048C199.127 23.048 203.927 28.712 203.927 37.16V75.464C203.927 77.672 205.271 79.112 207.191 79.112C208.919 79.112 210.263 78.056 210.839 76.424L226.583 35.048C229.079 27.656 233.207 23.048 241.847 23.048C251.447 23.048 256.247 28.712 256.247 37.16V89H244.823V37.736C244.823 35.432 243.479 33.992 241.559 33.992C239.927 33.992 238.583 35.144 238.007 36.776L222.263 78.152C219.767 85.544 215.543 90.152 206.903 90.152C197.399 90.152 192.599 84.488 192.599 75.944V37.736C192.599 35.432 191.159 33.992 189.239 33.992C187.511 33.992 186.359 35.144 185.687 36.776ZM271.231 24.2H282.559V66.536C282.559 72.776 285.631 77.672 295.807 77.672H320.959V89H295.135C277.951 89 271.231 79.592 271.231 66.632V24.2Z" fill="white"/>
</svg>
